<?xml version="1.0" encoding="UTF-8"?>
<svg width="180px" height="180px" viewBox="0 0 180 180" version="1.1" xmlns="http://www.w3.org/2000/svg" xmlns:xlink="http://www.w3.org/1999/xlink">
    <!-- Generator: Sketch 48 (47235) - http://www.bohemiancoding.com/sketch -->
    <title>apple-touch-icon</title>
    <desc>Created with Sketch.</desc>
    <defs>
        <rect id="path-1" x="0" y="0" width="180" height="180"></rect>
    </defs>
    <g id="Page-1" stroke="none" stroke-width="1" fill="none" fill-rule="evenodd">
        <g id="apple-touch-icon">
            <g id="logo">
                <mask id="mask-2" fill="white">
                    <use xlink:href="#path-1"></use>
                </mask>
                <use id="Mask" fill="#0C0C0C" xlink:href="#path-1"></use>
                <g id="Group" mask="url(#mask-2)" fill="#F2F3F3">
                    <g transform="translate(43.000000, 47.000000)" id="Shape">
                        <path d="M43.9552686,38.9331062 C41.5778478,43.2440384 39.2274431,47.5819139 36.8770385,51.8928461 C33.3379234,58.3592443 29.8258245,64.7986993 26.2867095,71.2650976 C23.5310627,76.2765562 20.7483997,81.2341282 17.9927528,86.2455869 C17.7496075,86.6766801 17.5604945,87 16.9661393,87 C11.4548457,86.9730567 5.91653584,86.9730567 0.405242181,86.9730567 C0.297177599,86.9730567 0.216129163,86.91917 0,86.8652834 C15.7774289,57.9281511 31.5548578,29.0449055 47.4403513,0 C48.493981,1.91297615 49.4665622,3.66429235 50.4121273,5.41560855 C55.5181788,14.7649427 60.6512464,24.1412202 65.7572979,33.4905544 C70.052865,41.3310622 74.321416,49.1715701 78.6169831,57.012078 C79.2113383,58.0898111 79.2113383,58.0898111 77.9145634,58.0898111 C72.7814957,58.0898111 67.6484281,58.0628678 62.5423766,58.1167544 C61.5697954,58.1167544 61.1375371,57.7664912 60.6782626,56.9312481 C56.3286632,48.8751936 51.9250315,40.8460824 47.4673675,32.6283679 C46.2246248,34.8377207 45.0899467,36.8854134 43.9552686,38.9331062 L43.9552686,38.9331062 Z"></path>
                        <path d="M95,86.9739777 L93.5359127,86.9739777 C88.5313963,86.9739777 83.5268798,86.9739777 78.4957436,87 C77.8302494,87 77.4309529,86.8698885 77.0848959,86.2193309 C74.8754551,82.1598513 72.6127748,78.1003717 70.3767142,74.0408922 C69.7910793,73 69.8176991,73 70.9623491,73 L86.3219555,73 C86.8277311,73 87.2536474,73.0260223 87.5464648,73.5724907 C89.942244,77.8921933 92.3646429,82.1858736 94.7870419,86.5055762 C94.8402814,86.6096654 94.8935209,86.739777 95,86.9739777 L95,86.9739777 L95,86.9739777 Z"></path>
                    </g>
                </g>
            </g>
        </g>
    </g>
</svg>