<?xml version="1.0" encoding="UTF-8"?>
<svg width="144px" height="144px" viewBox="0 0 144 144" version="1.1" xmlns="http://www.w3.org/2000/svg" xmlns:xlink="http://www.w3.org/1999/xlink">
    <!-- Generator: Sketch 57.1 (83088) - https://sketch.com -->
    <title>logo-transparent</title>
    <desc>Created with Sketch.</desc>
    <g id="logo-transparent" stroke="none" stroke-width="1" fill="none" fill-rule="evenodd">
        <path d="M112.546465,102.572491 C114.942244,106.892193 117.364643,111.185874 119.787042,115.505576 C119.840281,115.609665 119.893521,115.739777 120,115.973978 L118.535913,115.973978 C113.531396,115.973978 108.52688,115.973978 103.495744,116 C102.830249,116 102.430953,115.869889 102.084896,115.219331 C99.8754551,111.159851 97.6127748,107.100372 95.3767142,103.040892 C94.8379301,102.083271 94.8173584,102.006662 95.7088403,102.000533 L111.321956,102 C111.827731,102 112.253647,102.026022 112.546465,102.572491 Z M72.4403513,29 C73.493981,30.9129761 74.4665622,32.6642923 75.4121273,34.4156086 C80.5181788,43.7649427 85.6512464,53.1412202 90.7572979,62.4905544 C95.052865,70.3310622 99.321416,78.1715701 103.616983,86.012078 C104.211338,87.0898111 104.211338,87.0898111 102.914563,87.0898111 C97.7814957,87.0898111 92.6484281,87.0628678 87.5423766,87.1167544 C86.5697954,87.1167544 86.1375371,86.7664912 85.6782626,85.9312481 C81.3286632,77.8751936 76.9250315,69.8460824 72.4673675,61.6283679 C71.2246248,63.8377207 70.0899467,65.8854134 68.9552686,67.9331062 C66.5778478,72.2440384 64.2274431,76.5819139 61.8770385,80.8928461 C58.3379234,87.3592443 54.8258245,93.7986993 51.2867095,100.265098 C48.5310627,105.276556 45.7483997,110.234128 42.9927528,115.245587 C42.7496075,115.67668 42.5604945,116 41.9661393,116 C36.4548457,115.973057 30.9165358,115.973057 25.4052422,115.973057 C25.2971776,115.973057 25.2161292,115.91917 25,115.865283 C40.7774289,86.9281511 56.5548578,58.0449055 72.4403513,29 Z" id="logo" fill="#F2F3F3" fill-rule="nonzero"></path>
    </g>
</svg>